<?xml version="1.0" encoding="UTF-8"?>
<svg version="1.1" xmlns="http://www.w3.org/2000/svg" width="1024" height="1024">
<path d="M0 0 C337.92 0 675.84 0 1024 0 C1024 337.92 1024 675.84 1024 1024 C686.08 1024 348.16 1024 0 1024 C0 686.08 0 348.16 0 0 Z " fill="#FEFDFB" transform="translate(0,0)"/>
<path d="M0 0 C1.33333333 1.66666667 2.66666667 3.33333333 4 5 C4.7425 5.886875 5.485 6.77375 6.25 7.6875 C8 10 8 10 8 12 C8.66 12 9.32 12 10 12 C11.68574594 13.64736644 13.34854241 15.3182618 15 17 C16.5460876 18.27091964 18.09274248 19.54134448 19.65625 20.79077148 C30.0895463 29.19554216 36.40610219 38.34469499 41 51 C41.53367187 50.61328125 42.06734375 50.2265625 42.6171875 49.828125 C43.36226562 49.30734375 44.10734375 48.7865625 44.875 48.25 C45.59429687 47.73953125 46.31359375 47.2290625 47.0546875 46.703125 C55.52544758 41.8049136 63.86244301 40.13281435 73.5 38.9375 C81.60209115 37.90558739 89.25768581 36.65838581 97 34 C96.95359375 35.07894531 96.9071875 36.15789062 96.859375 37.26953125 C96.61482816 45.74078664 97.04309926 53.48556628 99 61.75 C101.63471823 73.00222774 102.53158817 83.04866192 98 94 C98.58265625 93.96519531 99.1653125 93.93039062 99.765625 93.89453125 C111.82220182 93.49643673 121.34226232 97.42965222 131.96777344 102.64990234 C138.1846669 105.68829957 144.33409972 108.0973578 151 110 C149.77980726 113.16918837 148.42610689 116.14010262 146.8125 119.125 C144.25604009 124.12513482 142.42524712 129.27876578 140.5625 134.5625 C136.36259024 146.2795249 130.60062509 155.93291661 120 163 C120.556875 163.37769531 121.11375 163.75539063 121.6875 164.14453125 C133.19439376 172.44426712 137.90304706 182.49727468 142.40625 195.515625 C145.00758818 203.00225139 148.56390726 209.45326103 153 216 C152.08863281 216.24492188 151.17726563 216.48984375 150.23828125 216.7421875 C140.67261116 219.45588835 131.91565843 223.1932569 123.0090332 227.60888672 C121.72838989 228.24334717 121.72838989 228.24334717 120.421875 228.890625 C119.28637207 229.46345215 119.28637207 229.46345215 118.12792969 230.04785156 C113.74168502 232.01048972 109.52455377 232.25303818 104.75 232.5625 C103.48671875 232.64628906 102.2234375 232.73007812 100.921875 232.81640625 C99.95765625 232.87699219 98.9934375 232.93757812 98 233 C98.2165625 233.59425781 98.433125 234.18851563 98.65625 234.80078125 C102.38177877 245.89112846 100.93229907 254.96289207 98.50268555 266.13720703 C96.69946571 274.73295833 96.2116356 283.23828631 96 292 C95.45287354 291.88930176 94.90574707 291.77860352 94.34204102 291.66455078 C91.75019633 291.14439567 89.15665509 290.63350891 86.5625 290.125 C85.13127808 289.84221191 85.13127808 289.84221191 83.67114258 289.55371094 C78.5259257 288.56729777 73.47459051 287.80342696 68.25219727 287.40966797 C57.12616382 286.54926524 48.24016958 282.16011305 39 276 C38.814375 277.258125 38.62875 278.51625 38.4375 279.8125 C36.34273029 289.1799561 30.06020178 296.76564751 23 303 C22.43796875 303.50660156 21.8759375 304.01320313 21.296875 304.53515625 C17.32050836 308 17.32050836 308 15 308 C15 308.66 15 309.32 15 310 C13.83370548 311.06860995 12.61494068 312.0802998 11.375 313.0625 C6.92500197 316.81570118 3.97341252 321.03304955 1 326 C-1.67393995 323.42445178 -3.94827664 320.81506564 -6.125 317.8125 C-10.74964934 311.78164037 -16.39052977 307.0089566 -22.20703125 302.16015625 C-30.76803502 294.94141311 -35.05634925 287.46986924 -39 277 C-39.54527344 277.39832031 -40.09054688 277.79664063 -40.65234375 278.20703125 C-41.40644531 278.73683594 -42.16054687 279.26664063 -42.9375 279.8125 C-43.66839844 280.33457031 -44.39929688 280.85664062 -45.15234375 281.39453125 C-53.52569914 286.11531186 -62.65234981 286.97722514 -72.0625 288.125 C-73.39919406 288.29474408 -74.73578374 288.46531213 -76.07226562 288.63671875 C-79.71381996 289.09989091 -83.35655449 289.55198718 -87 290 C-88.64458313 290.20531403 -90.28912609 290.41095063 -91.93359375 290.6171875 C-93.45146484 290.80667969 -93.45146484 290.80667969 -95 291 C-94.95359375 290.36578125 -94.9071875 289.7315625 -94.859375 289.078125 C-94.5915827 282.15378119 -95.51232586 275.96788851 -97 269.25 C-99.76836873 256.43561696 -100.48494868 244.6005701 -96 232 C-97.27230469 232.08701172 -97.27230469 232.08701172 -98.5703125 232.17578125 C-112.14131554 232.69774291 -122.51235281 227.9225925 -134.28466797 221.8203125 C-139.3662691 219.21500553 -144.41935487 217.28784118 -150 216 C-148.85510181 213.68775464 -147.68260771 211.3946642 -146.484375 209.109375 C-143.21677983 202.78024922 -140.37133305 196.53114332 -138 189.8125 C-133.86849445 178.30714622 -128.22453434 169.81635623 -118 163 C-118.7734375 162.3915625 -119.546875 161.783125 -120.34375 161.15625 C-132.10289979 151.44653041 -136.88631365 139.54882683 -141.91235352 125.46948242 C-143.72607267 120.46180824 -145.95518842 116.34973082 -149 112 C-149.33 111.34 -149.66 110.68 -150 110 C-149.13761719 109.74347656 -148.27523437 109.48695313 -147.38671875 109.22265625 C-138.77397906 106.52151191 -130.7663349 103.18357366 -122.69995117 99.12329102 C-115.7087878 95.65789828 -109.42701933 93.69484047 -101.5 93.875 C-99.93765625 93.90207031 -99.93765625 93.90207031 -98.34375 93.9296875 C-97.5703125 93.95289063 -96.796875 93.97609375 -96 94 C-96.2165625 93.34515625 -96.433125 92.6903125 -96.65625 92.015625 C-100.07412892 80.81257743 -99.35919811 71.55864185 -96.734375 60.2421875 C-94.83225575 51.84453336 -94.88060118 43.58344838 -95 35 C-93.83726562 35.26554687 -92.67453125 35.53109375 -91.4765625 35.8046875 C-83.16178258 37.65397301 -74.98858823 39.22905312 -66.5 40 C-56.02393591 41.00314746 -47.70386658 44.03527907 -39 50 C-38.29037109 48.44152344 -38.29037109 48.44152344 -37.56640625 46.8515625 C-31.62592445 34.17112365 -24.51979633 25.83712888 -13.51171875 17.0859375 C-7.70536316 12.26386303 -3.79558467 6.46592965 0 0 Z " fill="#BE9234" transform="translate(222,339)"/>
<path d="M0 0 C17.24119908 11.55478777 28.30192845 29.56602843 32.3125 49.8125 C35.23020418 70.88169079 31.40403929 91.66960878 18.875 109.125 C17.59736515 110.76105531 16.30762872 112.38781673 15 114 C14.21625 115.051875 13.4325 116.10375 12.625 117.1875 C0.45756588 130.22403656 -16.93895727 139.51685183 -35.00390625 140.203125 C-55.08780578 140.55570608 -72.20431302 134.65587592 -87.09765625 120.91015625 C-102.2013492 106.17303374 -109.89058551 86.8911261 -110.29296875 65.96899414 C-110.44134067 43.41460752 -103.72524334 24.33821537 -87.98828125 7.8984375 C-63.51144196 -15.53779679 -28.27761051 -16.7627363 0 0 Z " fill="#FEFDFA" transform="translate(262,439)"/>
<path d="M0 0 C3.96 0 7.92 0 12 0 C12 5.94 12 11.88 12 18 C14.64 18 17.28 18 20 18 C20 12.06 20 6.12 20 0 C23.96 0 27.92 0 32 0 C32 5.94 32 11.88 32 18 C34.10375 18.061875 34.10375 18.061875 36.25 18.125 C43.47578107 18.87533004 50.91814348 21.52471499 55.8359375 27.0703125 C59.73245544 33.1741065 60.7870665 38.82067717 60 46 C58.43454425 50.54912142 55.91473157 54.20834346 53 58 C53.79664063 58.54527344 53.79664063 58.54527344 54.609375 59.1015625 C60.1483833 63.04355746 63.800616 66.401848 66 73 C66.9593564 82.7717302 65.78921447 90.10264282 59.53125 97.80859375 C53.42314716 103.81190071 44.64376766 106.22618789 36.25 106.25 C34.8475 106.1675 33.445 106.085 32 106 C32 111.61 32 117.22 32 123 C28.04 123 24.08 123 20 123 C20 117.39 20 111.78 20 106 C17.36 106 14.72 106 12 106 C12 111.61 12 117.22 12 123 C8.04 123 4.08 123 0 123 C0 117.39 0 111.78 0 106 C-6.93 106 -13.86 106 -21 106 C-21 101.71 -21 97.42 -21 93 C-16.36132812 92.65820312 -16.36132812 92.65820312 -11.72265625 92.31640625 C-9.08890097 92.29581916 -9.08890097 92.29581916 -8 91 C-7.90100439 89.19490627 -7.87200849 87.38593072 -7.87060547 85.578125 C-7.86745331 84.42022461 -7.86430115 83.26232422 -7.86105347 82.06933594 C-7.8630777 80.80895508 -7.86510193 79.54857422 -7.8671875 78.25 C-7.86623077 76.96641602 -7.86527405 75.68283203 -7.86428833 74.36035156 C-7.86281169 71.63996176 -7.86496481 68.91960475 -7.86962891 66.19921875 C-7.87532619 62.70515331 -7.87204701 59.21116467 -7.86605644 55.71710205 C-7.86158246 52.39472847 -7.86471115 49.07237577 -7.8671875 45.75 C-7.86516327 44.48961914 -7.86313904 43.22923828 -7.86105347 41.93066406 C-7.86420563 40.77276367 -7.86735779 39.61486328 -7.87060547 38.421875 C-7.87140106 37.39674805 -7.87219666 36.37162109 -7.87301636 35.31542969 C-7.73962101 33.03793746 -7.73962101 33.03793746 -9 32 C-11.01594582 31.76572222 -13.038474 31.58663876 -15.0625 31.4375 C-17.021875 31.293125 -18.98125 31.14875 -21 31 C-21 26.71 -21 22.42 -21 18 C-14.07 18 -7.14 18 0 18 C0 12.06 0 6.12 0 0 Z " fill="#BE9335" transform="translate(205,442)"/>
<path d="M0 0 C33.8372093 0 33.8372093 0 43.75 9.6875 C50.98127928 19.49262444 51.01023199 30.27542928 50 42 C48.46631377 51.56784253 44.02032375 58.92265266 36.35546875 64.7734375 C25.2587972 70.55180378 11.80046248 68 0 68 C0 45.56 0 23.12 0 0 Z " fill="#BD9134" transform="translate(600,528)"/>
<path d="M0 0 C28 0 28 0 37 4 C42.56250833 9.79427951 43.33986195 13.12352723 43.29296875 20.9453125 C42.87649776 25.2877167 41.53897314 27.49024301 39 31 C38.34 31.99 37.68 32.98 37 34 C37.99 34.33 38.98 34.66 40 35 C44.03843924 41.41399173 45.70571697 46.38087051 45 54 C43.20626314 59.18190648 40.49782571 61.91815646 36 65 C27 68 27 68 0 68 C0 45.56 0 23.12 0 0 Z " fill="#BD9233" transform="translate(679,425)"/>
<path d="M0 0 C3.96 0 7.92 0 12 0 C18.27 13.53 24.54 27.06 31 41 C35.90346126 31.19307748 40.77694676 21.39190488 45.5 11.5 C46.03625 10.37980469 46.5725 9.25960938 47.125 8.10546875 C48.41789823 5.40423495 49.70913683 2.7022069 51 0 C54.63 0 58.26 0 62 0 C62 22.11 62 44.22 62 67 C58.7 67 55.4 67 52 67 C51.505 46.21 51.505 46.21 51 25 C45.72 36.22 40.44 47.44 35 59 C32.69 59 30.38 59 28 59 C26.25854492 56.91333008 26.25854492 56.91333008 25 54 C24.49380127 52.96447998 23.98760254 51.92895996 23.46606445 50.86206055 C22.937146 49.71519775 22.40822754 48.56833496 21.86328125 47.38671875 C21.34290283 46.26225342 20.82252441 45.13778809 20.28637695 43.97924805 C19.63499756 42.56297119 18.98361816 41.14669434 18.3125 39.6875 C16.229375 35.170625 14.14625 30.65375 12 26 C11.67 39.86 11.34 53.72 11 68 C7.37 68 3.74 68 0 68 C0 45.56 0 23.12 0 0 Z " fill="#BE9335" transform="translate(599,425)"/>
<path d="M0 0 C30.86486486 0 30.86486486 0 38 6 C41.67694682 11.06822399 43.26338504 15.6998298 43 22 C41.50605777 30.11752682 37.49076095 34.17671692 31 39 C31.45439453 39.84296631 31.90878906 40.68593262 32.37695312 41.55444336 C34.05629131 44.67115875 35.73290849 47.78933078 37.40869141 50.90795898 C38.1354838 52.25959772 38.86302155 53.61083594 39.59130859 54.96166992 C40.63573541 56.89918824 41.67750605 58.8381135 42.71875 60.77734375 C43.04685669 61.38464828 43.37496338 61.99195282 43.7130127 62.61766052 C46 66.88612829 46 66.88612829 46 68 C42.04 68 38.08 68 34 68 C32.16407651 64.4960241 30.33106812 60.99054071 28.50073242 57.48364258 C27.57168724 55.70508795 26.640347 53.92773279 25.70898438 52.15039062 C25.12568359 51.03212891 24.54238281 49.91386719 23.94140625 48.76171875 C23.40201416 47.73006592 22.86262207 46.69841309 22.30688477 45.63549805 C21 43 21 43 20 40 C17.03 40 14.06 40 11 40 C11 49.24 11 58.48 11 68 C7.37 68 3.74 68 0 68 C0 45.56 0 23.12 0 0 Z " fill="#BD9234" transform="translate(475,528)"/>
<path d="M0 0 C4.96661146 4.21082276 9.8225703 8.52620027 14.640625 12.90625 C16.48886835 14.54641297 18.35093707 16.06604993 20.3125 17.5625 C26.23231378 22.93163342 29.44342857 29.52847471 30.25390625 37.49609375 C30.64677307 46.43064573 28.36162626 53.85116499 23 61 C17.72 60.01 12.44 59.02 7 58 C6.94392578 55.99099609 6.94392578 55.99099609 6.88671875 53.94140625 C6.82100692 52.14841192 6.75456143 50.35544436 6.6875 48.5625 C6.65366211 47.24475586 6.65366211 47.24475586 6.61914062 45.90039062 C6.40198614 40.55049381 5.61570099 36.00697676 3.72973633 30.98803711 C3.00412314 29.01123276 2.47592027 27.04969881 2 25 C-3.06423908 29.53153387 -4.08131417 35.91965994 -4.51171875 42.47265625 C-4.58361689 44.33547157 -4.6421084 46.1988504 -4.6875 48.0625 C-4.72166016 49.02349609 -4.75582031 49.98449219 -4.79101562 50.97460938 C-4.87255738 53.31602268 -4.93797412 55.65798845 -5 58 C-10.61 58.99 -16.22 59.98 -22 61 C-30.47700126 41.00297139 -30.47700126 41.00297139 -26.4375 29.9375 C-22.396103 20.99068319 -16.15909011 14.9365457 -8.61938477 8.89282227 C-5.27536535 6.19748555 -2.55367269 3.45460344 0 0 Z " fill="#FDFCFA" transform="translate(222,359)"/>
<path d="M0 0 C4.52209886 11.20430744 6.2065919 21.94421007 1.4375 33.38671875 C-3.8172225 42.93946155 -15.76965388 54.64033676 -26 59 C-27.23697917 57.47005208 -28.47395833 55.94010417 -29.7109375 54.41015625 C-30.9666391 52.86733563 -30.9666391 52.86733563 -33 52 C-33 51.34 -33 50.68 -33 50 C-33.7321875 49.75378906 -34.464375 49.50757813 -35.21875 49.25390625 C-43.04647825 45.72483214 -48.69063468 37.72677706 -52 30 C-54.70481983 21.31701149 -53.07584981 11.5509015 -49.375 3.4375 C-48.92125 2.633125 -48.4675 1.82875 -48 1 C-41.9167016 1.67592204 -35.9894503 2.74850457 -30 4 C-29.98541748 4.55872803 -29.97083496 5.11745605 -29.95581055 5.69311523 C-29.88039202 8.27520052 -29.78405119 10.85612184 -29.6875 13.4375 C-29.66494141 14.31599609 -29.64238281 15.19449219 -29.61914062 16.09960938 C-29.35279786 22.66132655 -28.8583617 30.1416383 -24 35 C-20.26404124 28.12243955 -19.36301173 22.19935105 -19.25 14.4375 C-19.20552734 12.92446289 -19.20552734 12.92446289 -19.16015625 11.38085938 C-19.09019332 8.9204963 -19.03713811 6.46103989 -19 4 C-16.20895657 3.3306277 -13.41722977 2.66438908 -10.625 2 C-9.43390625 1.71382812 -9.43390625 1.71382812 -8.21875 1.421875 C-7.07792969 1.15117188 -7.07792969 1.15117188 -5.9140625 0.875 C-5.2123291 0.70742188 -4.5105957 0.53984375 -3.78759766 0.3671875 C-2 0 -2 0 0 0 Z " fill="#FDFCFA" transform="translate(247,586)"/>
<path d="M0 0 C1.9652951 1.45702913 3.81607117 2.97136913 5.6640625 4.57421875 C7.6440625 6.22421875 9.6240625 7.87421875 11.6640625 9.57421875 C9.3540625 15.18421875 7.0440625 20.79421875 4.6640625 26.57421875 C1.68951325 25.38439905 -1.11727471 24.23868875 -3.97265625 22.84765625 C-14.64745855 17.79021677 -14.64745855 17.79021677 -26.3359375 17.57421875 C-21.28453476 26.95539527 -11.68581928 30.5481046 -2.14453125 34.01953125 C0.6640625 35.57421875 0.6640625 35.57421875 1.5859375 38.01953125 C1.68729055 41.33377606 1.35001694 44.33152506 0.6640625 47.57421875 C-5.08887036 50.45068518 -15.11103075 49.19649541 -21.33203125 47.99609375 C-30.24484866 44.85878202 -37.28009084 38.26937036 -41.5859375 29.94921875 C-42.53642759 27.83913075 -43.45062574 25.71247174 -44.3359375 23.57421875 C-44.60954102 22.92984863 -44.88314453 22.28547852 -45.16503906 21.62158203 C-50.3359375 9.42304203 -50.3359375 9.42304203 -50.3359375 5.57421875 C-46.98483989 4.10876093 -43.62954572 2.65316065 -40.2734375 1.19921875 C-39.33048828 0.78671875 -38.38753906 0.37421875 -37.41601562 -0.05078125 C-24.23246999 -5.74680793 -13.02113322 -7.94768165 0 0 Z " fill="#FDFCFA" transform="translate(140.3359375,449.42578125)"/>
<path d="M0 0 C0.495 5.94 0.495 5.94 1 12 C-0.19496094 12.49628906 -1.38992187 12.99257813 -2.62109375 13.50390625 C-17.79288108 19.26036524 -17.79288108 19.26036524 -28 31 C-17.96599009 30.23177112 -10.20557187 27.73597446 -1.203125 23.4609375 C2 22 2 22 4 22 C5.06129426 24.24250878 6.09881233 26.49149089 7.125 28.75 C7.42792969 29.38421875 7.73085937 30.0184375 8.04296875 30.671875 C10.1517425 35.379835 10.1517425 35.379835 9.4609375 38.203125 C3.26391655 45.82512938 -5.30873727 51.00417239 -14.9921875 52.4453125 C-23.60934048 52.92989567 -30.49794268 50.32079176 -38.16894531 46.82568359 C-41.06223239 45.52100401 -44.00176672 44.33037755 -46.9375 43.125 C-48.62546995 42.41778729 -50.31316505 41.70991564 -52 41 C-42.00180112 9.33903688 -42.00180112 9.33903688 -28.39453125 2.1171875 C-19.34716252 -2.10393396 -9.69053938 -1.82152996 0 0 Z " fill="#FDFCFA" transform="translate(141,508)"/>
<path d="M0 0 C10.51832442 5.74033757 15.32724032 14.32336527 19.296875 25.23046875 C20.19505442 27.67808483 21.15790584 30.02522122 22.24609375 32.390625 C23.43359375 35.328125 23.43359375 35.328125 23.43359375 39.328125 C-5.89156244 53.65050407 -5.89156244 53.65050407 -21.06640625 48.890625 C-27.76274294 46.20231465 -32.96908346 41.80598323 -38.56640625 37.328125 C-36.25640625 31.718125 -33.94640625 26.108125 -31.56640625 20.328125 C-26.51740973 21.90076326 -21.91040057 23.6255732 -17.19140625 26.015625 C-11.56141594 28.67533754 -6.70145153 28.86212314 -0.56640625 28.328125 C-5.93125129 17.85390373 -18.07322701 13.94818843 -28.56640625 10.328125 C-27.90640625 6.368125 -27.24640625 2.408125 -26.56640625 -1.671875 C-18.24751762 -4.44483788 -7.97321734 -3.36462663 0 0 Z " fill="#FDFCFA" transform="translate(332.56640625,509.671875)"/>
<path d="M0 0 C-0.64175427 5.67347974 -2.58867289 10.61425272 -4.6875 15.875 C-5.01427734 16.73480469 -5.34105469 17.59460938 -5.67773438 18.48046875 C-8.88404693 26.56062162 -12.84987179 33.27176547 -20.4375 37.875 C-21.32308594 38.42929687 -22.20867187 38.98359375 -23.12109375 39.5546875 C-29.41136947 42.71262782 -35.05286071 43.27838528 -41.9375 43.125 C-42.71673828 43.11597656 -43.49597656 43.10695313 -44.29882812 43.09765625 C-46.19935447 43.07433691 -48.09972008 43.03847586 -50 43 C-50.66 38.71 -51.32 34.42 -52 30 C-50.70964844 29.49210937 -49.41929687 28.98421875 -48.08984375 28.4609375 C-46.37210884 27.76633431 -44.65467681 27.07098176 -42.9375 26.375 C-42.08994141 26.04371094 -41.24238281 25.71242188 -40.36914062 25.37109375 C-33.33283391 22.49136977 -27.21259106 19.17449701 -24 12 C-33.22736626 11.3949268 -40.35740082 14.06664629 -48.5 18.25 C-52 20 -52 20 -55 20 C-55.33773438 19.18015625 -55.67546875 18.3603125 -56.0234375 17.515625 C-56.46945312 16.43796875 -56.91546875 15.3603125 -57.375 14.25 C-58.03628906 12.64898437 -58.03628906 12.64898437 -58.7109375 11.015625 C-59.73307585 8.62444074 -60.80213595 6.30616817 -62 4 C-59.84324265 2.21582854 -57.67583476 0.44814996 -55.5 -1.3125 C-54.89929688 -1.81201172 -54.29859375 -2.31152344 -53.6796875 -2.82617188 C-36.14036602 -16.91360562 -18.09442861 -8.52142429 0 0 Z " fill="#FDFCFA" transform="translate(356,455)"/>
<path d="M0 0 C3.91939465 3.80411834 7.49102731 7.81576108 11 12 C9.62990444 15.77793677 7.87330579 18.86413097 5.625 22.1875 C1.23310894 28.9766316 -2.14395468 35.86756948 -3 44 C7.34456522 38.52508383 13.44014145 30.08777366 19 20 C22.95906817 21.43308135 26.28718181 23.33141949 29.8125 25.625 C30.78832031 26.25664063 31.76414063 26.88828125 32.76953125 27.5390625 C33.50558594 28.02117188 34.24164063 28.50328125 35 29 C33.19218946 35.34938338 30.83448707 40.62290319 27 46 C26.59265625 46.6084375 26.1853125 47.216875 25.765625 47.84375 C19.14056208 56.7291285 9.15485468 59.32470611 -1.3125 60.875 C-6.91163929 61.66894752 -12.34463798 62.13737722 -18 62 C-18.70813412 57.71147841 -19.38768381 53.41887992 -20.0625 49.125 C-20.26166016 47.92101562 -20.46082031 46.71703125 -20.66601562 45.4765625 C-22.61872837 32.86957493 -21.97092263 23.93921842 -15 13 C-10.70526473 7.74025337 -5.62442928 3.74961952 0 0 Z " fill="#FDFCFA" transform="translate(156,554)"/>
<path d="M0 0 C16.4406114 1.31941549 31.37927124 2.57702722 43.1875 15.25 C47.95572302 21.12559722 50.98846717 27.50595568 52 35 C50.27559635 35.98753064 48.54524974 36.96468806 46.8125 37.9375 C45.84957031 38.48277344 44.88664062 39.02804687 43.89453125 39.58984375 C41.19337158 40.90579333 38.95643899 41.57301887 36 42 C35.23816406 40.71416016 35.23816406 40.71416016 34.4609375 39.40234375 C26.60707932 26.1963668 26.60707932 26.1963668 14 18 C16.35990184 29.8616119 20.73384156 39.14340167 29 48 C27.48446596 51.47775179 25.4226544 53.9557984 22.875 56.75 C22.15054688 57.54921875 21.42609375 58.3484375 20.6796875 59.171875 C20.12539062 59.77515625 19.57109375 60.3784375 19 61 C10.96894476 59.45077205 4.64719434 52.36061613 0 46 C-7.4422651 32.80565455 -4.12629189 16.04401589 -1 2 C-0.67 1.34 -0.34 0.68 0 0 Z " fill="#FDFCFA" transform="translate(139,389)"/>
<path d="M0 0 C9.32271363 3.17404332 16.46948172 11.47755652 21 20 C26.42458882 32.8217554 21.76573967 48.03375638 19 61 C-11.65932184 58.86620104 -11.65932184 58.86620104 -23.953125 47.37890625 C-29.01049721 41.50115877 -32.00067892 34.65389096 -33 27 C-30.89983377 25.82558465 -28.79541245 24.66035988 -26.6875 23.5 C-26.09259766 23.16613281 -25.49769531 22.83226562 -24.88476562 22.48828125 C-22.04171156 20.93174886 -20.29339012 20 -17 20 C-15.23828125 22.34375 -15.23828125 22.34375 -13.3125 25.5 C-8.49328844 32.98967375 -3.44952248 39.62019101 5 43 C3.17353455 32.61197773 -0.98163905 22.97011906 -7.8125 14.84375 C-9 13 -9 13 -8.94140625 11.046875 C-7.68771671 8.32101061 -5.97348629 6.44757251 -3.9375 4.25 C-3.20402344 3.45078125 -2.47054688 2.6515625 -1.71484375 1.828125 C-1.14894531 1.22484375 -0.58304687 0.6215625 0 0 Z " fill="#FDFCFA" transform="translate(288,555)"/>
<path d="M0 0 C7.34033653 32.57274333 7.34033653 32.57274333 -1.28515625 47.17578125 C-5.35100416 53.00840429 -11.15258074 59.71752691 -18 62 C-21.63 58.04 -25.26 54.08 -29 50 C-26.77879809 45.55759618 -24.11878773 41.51558459 -21.36523438 37.39648438 C-17.52604862 31.5386918 -14.47026851 26.2396637 -15 19 C-23.62904044 23.56463734 -28.4538592 30.25142062 -34 38 C-34.99651532 39.33593975 -35.99481954 40.67056778 -37 42 C-40.57040303 41.34097701 -43.17732255 39.83770842 -46.25 37.9375 C-47.14203125 37.38964844 -48.0340625 36.84179688 -48.953125 36.27734375 C-49.62859375 35.85582031 -50.3040625 35.43429687 -51 35 C-50.40120356 25.81845464 -45.8394058 17.14642635 -39 11 C-28.57628726 2.96426508 -13.09020689 0 0 0 Z " fill="#FDFCFA" transform="translate(307,389)"/>
<path d="M0 0 C1.51400391 0.01740234 1.51400391 0.01740234 3.05859375 0.03515625 C4.07050781 0.04417969 5.08242188 0.05320312 6.125 0.0625 C6.90746094 0.07410156 7.68992187 0.08570313 8.49609375 0.09765625 C11.65489813 7.71685308 14.39948493 15.44276138 17.04296875 23.25390625 C17.45903381 24.47799194 17.87509888 25.70207764 18.30377197 26.96325684 C19.17614105 29.53089306 20.04654205 32.09918544 20.91552734 34.66796875 C22.03017994 37.96235679 23.15009248 41.25492953 24.2714653 44.54703522 C25.34403495 47.69834321 26.4120412 50.85119147 27.48046875 54.00390625 C27.88352234 55.18714478 28.28657593 56.3703833 28.70184326 57.58947754 C29.25306854 59.22257874 29.25306854 59.22257874 29.81542969 60.88867188 C30.14089783 61.84890259 30.46636597 62.8091333 30.80169678 63.79846191 C31.49609375 66.09765625 31.49609375 66.09765625 31.49609375 68.09765625 C27.53609375 68.09765625 23.57609375 68.09765625 19.49609375 68.09765625 C18.82454026 65.82816523 18.15869745 63.55726015 17.49609375 61.28515625 C17.12484375 60.02058594 16.75359375 58.75601563 16.37109375 57.453125 C15.49609375 54.09765625 15.49609375 54.09765625 15.49609375 51.09765625 C7.24609375 51.09765625 -1.00390625 51.09765625 -9.50390625 51.09765625 C-10.16390625 54.06765625 -10.82390625 57.03765625 -11.50390625 60.09765625 C-12.38946381 62.83151055 -13.43534968 65.42626482 -14.50390625 68.09765625 C-18.13390625 68.09765625 -21.76390625 68.09765625 -25.50390625 68.09765625 C-23.01282811 58.4660562 -19.92315807 49.0838208 -16.75390625 39.66015625 C-16.21567102 38.05365231 -15.67750408 36.44712549 -15.1394043 34.84057617 C-12.2357773 26.18439045 -9.31449245 17.53414956 -6.31640625 8.91015625 C-5.8982666 7.70178101 -5.8982666 7.70178101 -5.47167969 6.46899414 C-3.24231123 0.1264552 -3.24231123 0.1264552 0 0 Z " fill="#BD9133" transform="translate(556.50390625,424.90234375)"/>
<path d="M0 0 C3.96 0 7.92 0 12 0 C15.01757812 9.05273438 18.03515625 18.10546875 21.05273438 27.15820312 C21.38002533 28.13991486 21.70731628 29.12162659 22.04452515 30.13308716 C22.7052551 32.11560269 23.36559412 34.09824856 24.02554321 36.08102417 C25.6938899 41.09182086 27.36923816 46.10008285 29.05810547 51.10400391 C29.38419296 52.07324295 29.71028046 53.04248199 30.04624939 54.04109192 C30.66665137 55.88443798 31.28940263 57.72699549 31.91481018 59.56864929 C32.18969772 60.38686661 32.46458527 61.20508392 32.74780273 62.0480957 C32.99054428 62.76584671 33.23328583 63.48359772 33.48338318 64.22309875 C34 66 34 66 34 68 C30.37 68 26.74 68 23 68 C20.19348216 62.13182634 19.34680781 57.73403907 18 51 C10.08 51.33 2.16 51.66 -6 52 C-7.65 57.28 -9.3 62.56 -11 68 C-14.63 68 -18.26 68 -22 68 C-21.37850712 60.99945835 -19.05307162 54.61874777 -16.81640625 47.98828125 C-16.40083969 46.74249802 -15.98527313 45.49671478 -15.55711365 44.21318054 C-14.68070441 41.58706752 -13.80030577 38.96233939 -12.91674805 36.33862305 C-11.78639597 32.98162831 -10.66401124 29.62203792 -9.54432774 26.26147175 C-8.47170631 23.04428278 -7.39399028 19.82881159 -6.31640625 16.61328125 C-5.91426407 15.40908035 -5.51212189 14.20487946 -5.09779358 12.96418762 C-4.72077805 11.84590073 -4.34376251 10.72761383 -3.95532227 9.57543945 C-3.62524673 8.59283646 -3.2951712 7.61023346 -2.95509338 6.59785461 C-2 4 -2 4 0 0 Z " fill="#BD9234" transform="translate(822,425)"/>
<path d="M0 0 C3.63 0 7.26 0 11 0 C16.61955189 14.7469607 21.60016491 29.68951897 26.5 44.6875 C26.82067444 45.66417633 27.14134888 46.64085266 27.47174072 47.64712524 C28.39239392 50.45456119 29.30665077 53.26399364 30.21875 56.07421875 C30.4996347 56.9296225 30.78051941 57.78502625 31.06991577 58.66635132 C31.45199692 59.85184067 31.45199692 59.85184067 31.84179688 61.0612793 C32.06637573 61.75215134 32.29095459 62.44302338 32.52233887 63.15483093 C33 65 33 65 33 68 C29.37 68 25.74 68 22 68 C19.525 60.08 19.525 60.08 17 52 C9.08 51.67 1.16 51.34 -7 51 C-7.45375 52.876875 -7.9075 54.75375 -8.375 56.6875 C-9.34187784 60.68685832 -10.45860151 64.14650377 -12 68 C-15.63 68 -19.26 68 -23 68 C-21.07365136 60.75299898 -18.97468422 53.61598744 -16.6015625 46.50390625 C-16.28472504 45.54910873 -15.96788757 44.59431122 -15.64144897 43.61058044 C-14.97570107 41.60763861 -14.30841687 39.60520681 -13.63964844 37.60327148 C-12.62924104 34.57520986 -11.62686795 31.54456797 -10.625 28.51367188 C-7.41077778 18.84089611 -4.11430903 9.3326508 0 0 Z " fill="#BD9133" transform="translate(934,425)"/>
<path d="M0 0 C2.6015625 -0.29296875 2.6015625 -0.29296875 5.625 -0.1875 C7.12933594 -0.14689453 7.12933594 -0.14689453 8.6640625 -0.10546875 C9.43492187 -0.07066406 10.20578125 -0.03585937 11 0 C11.20187424 0.59531525 11.40374847 1.19063049 11.61174011 1.8039856 C13.73598771 8.06753547 15.86182052 14.33054577 17.98852539 20.59326172 C18.77928683 22.92255411 19.56966012 25.25197832 20.35961914 27.58154297 C21.50301739 30.95315755 22.6477395 34.32431946 23.79296875 37.6953125 C24.34596146 39.32548309 24.34596146 39.32548309 24.91012573 40.98858643 C26.45881356 45.53986612 28.01482092 50.08552045 29.66650391 54.60058594 C29.90524734 55.25324432 30.14399078 55.90590271 30.38996887 56.57833862 C30.99161744 58.20702841 31.60329935 59.83200293 32.21606445 61.45654297 C33 64 33 64 33 68 C29.37 68 25.74 68 22 68 C21.16301614 65.54285453 20.33027576 63.08441143 19.5 60.625 C19.26152344 59.92632813 19.02304687 59.22765625 18.77734375 58.5078125 C17 53.2265625 17 53.2265625 17 51 C9.08 51 1.16 51 -7 51 C-7.45375 52.876875 -7.9075 54.75375 -8.375 56.6875 C-9.34187784 60.68685832 -10.45860151 64.14650377 -12 68 C-15.63 68 -19.26 68 -23 68 C-20.88209118 59.97037759 -18.46742996 52.09507046 -15.83984375 44.21875 C-15.44930313 43.04284302 -15.05876251 41.86693604 -14.65638733 40.65539551 C-13.83681778 38.19098123 -13.01570585 35.7270794 -12.19311523 33.26367188 C-11.35154382 30.74108489 -10.51202629 28.21794617 -9.67651367 25.69335938 C-8.46472972 22.033606 -7.24691845 18.37591356 -6.02734375 14.71875 C-5.65334946 13.58755737 -5.27935516 12.45636475 -4.89402771 11.29089355 C-4.54348831 10.24550415 -4.19294891 9.20011475 -3.83178711 8.12304688 C-3.52550888 7.20358276 -3.21923065 6.28411865 -2.90367126 5.33679199 C-2 3 -2 3 0 0 Z " fill="#BD9133" transform="translate(555,528)"/>
<path d="M0 0 C3.3 0 6.6 0 10 0 C10.33 8.91 10.66 17.82 11 27 C19.91 27 28.82 27 38 27 C38.33 18.09 38.66 9.18 39 0 C42.63 0 46.26 0 50 0 C50 22.44 50 44.88 50 68 C46.7 68 43.4 68 40 68 C39.67 57.77 39.34 47.54 39 37 C30.09 37 21.18 37 12 37 C11.67 47.23 11.34 57.46 11 68 C7.37 68 3.74 68 0 68 C0 45.56 0 23.12 0 0 Z " fill="#BD9234" transform="translate(738,425)"/>
<path d="M0 0 C3.3 0 6.6 0 10 0 C10 9.24 10 18.48 10 28 C19.24 28 28.48 28 38 28 C38 18.76 38 9.52 38 0 C41.63 0 45.26 0 49 0 C49 22.44 49 44.88 49 68 C45.7 68 42.4 68 39 68 C38.67 57.77 38.34 47.54 38 37 C29.09 37 20.18 37 11 37 C10.67 47.23 10.34 57.46 10 68 C6.7 68 3.4 68 0 68 C0 45.56 0 23.12 0 0 Z " fill="#BC9031" transform="translate(470,425)"/>
<path d="M0 0 C12.21 0 24.42 0 37 0 C37 2.97 37 5.94 37 9 C28.09 9 19.18 9 10 9 C10 15.27 10 21.54 10 28 C17.59 28 25.18 28 33 28 C33 30.97 33 33.94 33 37 C25.41 37 17.82 37 10 37 C10 44.26 10 51.52 10 59 C19.24 59 28.48 59 38 59 C38 61.97 38 64.94 38 68 C25.46 68 12.92 68 0 68 C0 45.56 0 23.12 0 0 Z " fill="#BB8F31" transform="translate(665,528)"/>
<path d="M0 0 C1.06351675 3.38391693 1.21442982 4.5804634 -0.4375 7.8125 C-0.953125 8.534375 -1.46875 9.25625 -2 10 C-2.54527344 9.7834375 -3.09054687 9.566875 -3.65234375 9.34375 C-10.21731902 6.91975913 -16.41186075 5.35543618 -23 8.375 C-25.81732839 10.66407932 -25.96063654 11.65228941 -26.375 15.3125 C-25.88968938 20.08472111 -24.62476087 20.93072197 -21 24 C-17.52756918 26.0666294 -13.88217299 27.77744675 -10.23828125 29.51757812 C-4.42315374 32.42514188 -1.41698729 35.54716101 2.3125 40.875 C4.08939557 46.36722269 3.2967708 51.88317105 1.10546875 57.109375 C-1.56867669 61.68282515 -5.39847268 64.30914508 -10.1875 66.375 C-20.4368112 68.05521495 -29.62035646 67.57717576 -38.28125 61.36328125 C-38.8484375 60.91339844 -39.415625 60.46351563 -40 60 C-38.7508258 56.54074837 -37.32472205 53.85306797 -35 51 C-34.30777344 51.52400391 -34.30777344 51.52400391 -33.6015625 52.05859375 C-27.63263898 56.22268467 -22.11183713 57.69454309 -14.84375 56.70703125 C-12.72072214 56.25387618 -12.72072214 56.25387618 -10 55 C-8.7948203 51.3844609 -8.04199574 47.72477776 -9 44 C-13.1352625 39.96674587 -18.27392265 37.64587522 -23.38476562 35.08789062 C-29.84476035 31.76279689 -35.51636325 28.17495061 -38 21 C-38.97379422 14.53208283 -37.78781191 9.33790109 -34 4 C-24.96969038 -5.74778627 -11.44521845 -4.73595246 0 0 Z " fill="#BE9233" transform="translate(453,427)"/>
<path d="M0 0 C17.51585014 0 17.51585014 0 23.51953125 5.35546875 C29.5577686 11.84613887 29.38196062 19.97727451 29.25 28.33203125 C28.73026253 35.95755441 26.62228721 41.75253194 21 47 C13.55646628 50.98760735 9.28411711 50 0 50 C0 33.5 0 17 0 0 Z " fill="#FEFDFA" transform="translate(611,537)"/>
<path d="M0 0 C14.85 0 29.7 0 45 0 C45 2.97 45 5.94 45 9 C39.39 9 33.78 9 28 9 C28 28.47 28 47.94 28 68 C24.37 68 20.74 68 17 68 C17 48.53 17 29.06 17 9 C11.39 9 5.78 9 0 9 C0 6.03 0 3.06 0 0 Z " fill="#BD9134" transform="translate(414,528)"/>
<path d="M0 0 C3.63 0 7.26 0 11 0 C11 19.47 11 38.94 11 59 C19.25 59 27.5 59 36 59 C36 61.97 36 64.94 36 68 C24.12 68 12.24 68 0 68 C0 45.56 0 23.12 0 0 Z " fill="#BE9337" transform="translate(867,425)"/>
<path d="M0 0 C3.33316277 -0.08811914 6.66602047 -0.14076197 10 -0.1875 C10.93457031 -0.21263672 11.86914062 -0.23777344 12.83203125 -0.26367188 C19.92001091 -0.33802131 25.5879202 0.46281245 31.4375 4.8125 C33.48874147 7.68423806 33.93066746 9.46404036 34 13 C32.4720979 18.80602799 30.24065266 21.0300449 25.1328125 24.0546875 C19.98816939 26.33491393 14.77194776 26.15293565 9.25 26.125 C8.47011719 26.12886719 7.69023437 26.13273438 6.88671875 26.13671875 C1.12670133 26.12670133 1.12670133 26.12670133 0 25 C-0.08737645 23.14630389 -0.10698153 21.28932459 -0.09765625 19.43359375 C-0.09443359 18.30888672 -0.09121094 17.18417969 -0.08789062 16.02539062 C-0.07951172 14.84138672 -0.07113281 13.65738281 -0.0625 12.4375 C-0.05798828 11.24962891 -0.05347656 10.06175781 -0.04882812 8.83789062 C-0.03699675 5.89187774 -0.02051287 2.94596319 0 0 Z " fill="#FCFBF8" transform="translate(216,509)"/>
<path d="M0 0 C19.09664948 -0.43900344 19.09664948 -0.43900344 26 5 C28.56619697 8.42159595 28.50984054 11.84844133 28 16 C25.09895646 19.72991313 22.48661625 21.6552212 18 23 C14.88953433 23.23300321 11.80432077 23.18846531 8.6875 23.125 C5.820625 23.08375 2.95375 23.0425 0 23 C0 15.41 0 7.82 0 0 Z " fill="#FCFBF7" transform="translate(216,473)"/>
<path d="M0 0 C2.701875 -0.061875 5.40375 -0.12375 8.1875 -0.1875 C9.02949951 -0.21481201 9.87149902 -0.24212402 10.73901367 -0.27026367 C15.34920289 -0.32122618 18.22808265 0.0662865 22 3 C24.38224928 5.38224928 24.32017149 6.0502037 24.375 9.3125 C24.2940552 12.66901124 24.0358236 13.93764041 22.3125 16.9375 C17.68425818 21.06539136 13.17478001 21.27280178 7.1875 21.125 C4.815625 21.08375 2.44375 21.0425 0 21 C0 14.07 0 7.14 0 0 Z " fill="#FDFBF9" transform="translate(689,463)"/>
<path d="M0 0 C2.206875 -0.061875 4.41375 -0.12375 6.6875 -0.1875 C8.54955078 -0.23970703 8.54955078 -0.23970703 10.44921875 -0.29296875 C14.2457708 0.02027812 16.01467371 0.69242347 19 3 C21.8199641 7.22994616 21.79231188 11.03220448 21 16 C18.47323961 19.34625024 16.96066458 20.67977847 13 22 C8.66328697 22.13501597 4.33988266 22.04296914 0 22 C0 14.74 0 7.48 0 0 Z " fill="#FEFDFB" transform="translate(486,537)"/>
<path d="M0 0 C3.83625 -0.061875 3.83625 -0.061875 7.75 -0.125 C8.54889648 -0.14320801 9.34779297 -0.16141602 10.17089844 -0.18017578 C16.93525092 -0.23299566 16.93525092 -0.23299566 20 2 C22.13513938 5.23952181 23.0154753 7.2262352 22.9375 11.125 C21.86656749 14.40919303 20.65180522 15.83034119 18 18 C14.81453711 19.59273144 11.36800652 19.10141833 7.875 19.0625 C5.27625 19.041875 2.6775 19.02125 0 19 C0 12.73 0 6.46 0 0 Z " fill="#FDFBF8" transform="translate(689,434)"/>
<path d="M0 0 C0.66 0 1.32 0 2 0 C3.34315504 3.91336793 4.67280672 7.83119282 6 11.75 C6.3815625 12.86117187 6.763125 13.97234375 7.15625 15.1171875 C7.5171875 16.18710937 7.878125 17.25703125 8.25 18.359375 C8.75273438 19.83615723 8.75273438 19.83615723 9.265625 21.34277344 C10 24 10 24 10 28 C4.06 28 -1.88 28 -8 28 C-5.7474152 18.51543241 -2.97785646 9.2749047 0 0 Z " fill="#FDFCFA" transform="translate(559,543)"/>
<path d="M0 0 C1.85562424 2.78343636 2.72320207 4.85327875 3.7265625 8 C4.0359375 8.969375 4.3453125 9.93875 4.6640625 10.9375 C4.98117187 11.948125 5.29828125 12.95875 5.625 14 C5.94984375 15.010625 6.2746875 16.02125 6.609375 17.0625 C9 24.61607143 9 24.61607143 9 28 C3.06 28 -2.88 28 -9 28 C-7.26172449 21.41285071 -5.39050101 14.88179297 -3.375 8.375 C-3.15690674 7.66408203 -2.93881348 6.95316406 -2.71411133 6.22070312 C-1.11975531 1.11975531 -1.11975531 1.11975531 0 0 Z " fill="#FDFBF9" transform="translate(939,439)"/>
<path d="M0 0 C2.29107782 2.29107782 2.74863978 3.80414409 3.7265625 6.8671875 C4.0359375 7.83527344 4.3453125 8.80335938 4.6640625 9.80078125 C4.98117187 10.81527344 5.29828125 11.82976562 5.625 12.875 C5.94984375 13.88175781 6.2746875 14.88851563 6.609375 15.92578125 C7.9538791 20.17961144 9 23.49950558 9 28 C3.06 28 -2.88 28 -9 28 C-6.26457238 18.57797153 -3.12928026 9.29669669 0 0 Z " fill="#FCFBF9" transform="translate(559,439)"/>
<path d="M0 0 C2.29107782 2.29107782 2.74863978 3.80414409 3.7265625 6.8671875 C4.0359375 7.83527344 4.3453125 8.80335938 4.6640625 9.80078125 C4.98117187 10.81527344 5.29828125 11.82976562 5.625 12.875 C5.94984375 13.88175781 6.2746875 14.88851563 6.609375 15.92578125 C7.9538791 20.17961144 9 23.49950558 9 28 C3.39 28 -2.22 28 -8 28 C-6.43618819 18.3043668 -3.20450331 9.25073597 0 0 Z " fill="#FDFCF9" transform="translate(827,439)"/>
<path d="M0 0 C3.3 0 6.6 0 10 0 C10 8.91 10 17.82 10 27 C9.67 27 9.34 27 9 27 C9 18.42 9 9.84 9 1 C6.69 1 4.38 1 2 1 C2 22.45 2 43.9 2 66 C4.64 66 7.28 66 10 66 C10 56.1 10 46.2 10 36 C10.33 36 10.66 36 11 36 C11 46.56 11 57.12 11 68 C7.37 68 3.74 68 0 68 C0 45.56 0 23.12 0 0 Z " fill="#B88C2E" transform="translate(738,425)"/>
<path d="M0 0 C3.96 0 7.92 0 12 0 C11.67 0.66 11.34 1.32 11 2 C8.03 1.67 5.06 1.34 2 1 C2 22.45 2 43.9 2 66 C4.64 66 7.28 66 10 66 C10 52.8 10 39.6 10 26 C10.33 26 10.66 26 11 26 C11 39.86 11 53.72 11 68 C7.37 68 3.74 68 0 68 C0 45.56 0 23.12 0 0 Z " fill="#B6882A" transform="translate(599,425)"/>
<path d="M0 0 C0 4.08735515 -1.69711865 5.39489363 -4.33984375 8.34375 C-6.38334386 10.38244188 -8.35924173 11.82632966 -11 13 C-11.66 12.67 -12.32 12.34 -13 12 C-8.71 8.04 -4.42 4.08 0 0 Z " fill="#B4821B" transform="translate(244,625)"/>
<path d="M0 0 C2.29013653 3.4352048 2.17842973 4.985331 2 9 C-2.35535069 7.83857315 -4.64619703 6.92300495 -7 3 C-6.38125 3.33 -5.7625 3.66 -5.125 4 C-3.08981656 5.14193235 -3.08981656 5.14193235 -1 5 C-0.67 3.35 -0.34 1.7 0 0 Z " fill="#B7841F" transform="translate(291,589)"/>
<path d="M0 0 C1.32 0 2.64 0 4 0 C4 1.65 4 3.3 4 5 C4.66 5 5.32 5 6 5 C6 8.3 6 11.6 6 15 C3.81005752 11.71508627 3.64722661 10.16904361 3.375 6.3125 C3.30023438 5.31863281 3.22546875 4.32476562 3.1484375 3.30078125 C3.07496094 2.16189453 3.07496094 2.16189453 3 1 C2.01 0.67 1.02 0.34 0 0 Z " fill="#B68521" transform="translate(304,388)"/>
<path d="M0 0 C2.97 0.495 2.97 0.495 6 1 C4.8141763 4.37503669 3.72426311 6.64722731 1 9 C1.20625 8.443125 1.4125 7.88625 1.625 7.3125 C2.10695211 4.340462 1.26565028 2.68020059 0 0 Z " fill="#B98725" transform="translate(367,448)"/>
<path d="M0 0 C-0.33 0.99 -0.66 1.98 -1 3 C-0.11680706 6.15020361 -0.11680706 6.15020361 1 9 C-1.91488977 6.3765992 -3.88503898 3.28183606 -6 0 C-3.50907189 -1.24546405 -2.58919267 -0.7767578 0 0 Z " fill="#B58321" transform="translate(78,449)"/>
<path d="M0 0 C2 2 2 2 2.1171875 3.875 C1.87548806 5.99571768 1.61949222 7.95524245 1 10 C-1.0625 11.5 -1.0625 11.5 -3 12 C-2.690625 11.505 -2.38125 11.01 -2.0625 10.5 C-0.58355618 7.02013219 -0.37597149 3.75971491 0 0 Z " fill="#B88722" transform="translate(445,471)"/>
<path d="M0 0 C1.65 0.33 3.3 0.66 5 1 C4.01 1.66 3.02 2.32 2 3 C4.475 5.97 4.475 5.97 7 9 C3.2047869 7.50902342 1.38957269 5.24299151 -1 2 C-0.67 1.34 -0.34 0.68 0 0 Z " fill="#B6851F" transform="translate(114,466)"/>
<path d="M0 0 C2.72107452 2.3500189 3.96702492 4.55674975 5 8 C4.67 8.99 4.34 9.98 4 11 C1.52214277 7.33708062 0.51035831 4.3890815 0 0 Z " fill="#B68421" transform="translate(295,462)"/>
</svg>
