<svg version="1.1" id="Layer_1" xmlns="http://www.w3.org/2000/svg" xmlns:xlink="http://www.w3.org/1999/xlink" x="0px" y="0px"
	 width="100%" viewBox="0 0 500 500" enable-background="new 0 0 500 500" xml:space="preserve">
<path fill="#010000" opacity="1.000000" stroke="none" 
	d="
M280.000000,501.000000 
	C186.666687,501.000000 93.833374,501.000000 1.000050,501.000000 
	C1.000033,334.333405 1.000033,167.666794 1.000017,1.000139 
	C167.666565,1.000093 334.333130,1.000093 500.999756,1.000046 
	C500.999847,167.666519 500.999847,334.333038 500.999939,500.999786 
	C427.500000,501.000000 354.000000,501.000000 280.000000,501.000000 
M272.208252,180.111984 
	C290.753021,174.913361 309.381409,169.990952 327.810211,164.409393 
	C338.353760,161.216049 348.243927,156.345764 356.557159,148.814835 
	C362.158234,143.740845 365.678497,137.164154 365.786835,131.345047 
	C359.358063,139.889923 350.828979,145.317719 341.345032,149.189590 
	C331.813782,153.080780 322.085358,156.494919 312.406647,160.017349 
	C298.066620,165.236206 283.114594,169.163605 271.538361,179.595551 
	C271.538361,179.595551 271.696686,179.835724 271.696686,179.835724 
	C271.696686,179.835724 271.435486,179.659668 272.208252,180.111984 
M171.912949,113.527679 
	C167.407684,105.836014 162.902420,98.144348 158.397156,90.452682 
	C158.780029,95.911095 159.560211,101.343063 161.353928,106.416695 
	C167.846024,124.779976 181.122589,137.699982 196.524628,148.677094 
	C205.719543,155.230347 215.727188,160.728333 224.475342,167.805893 
	C243.566284,183.251083 245.951935,204.822968 230.683624,224.127182 
	C225.984161,230.068863 219.267899,234.415405 214.024063,239.011230 
	C221.111389,237.807114 227.942245,233.852249 233.690613,228.174454 
	C253.006821,209.095428 256.413940,186.145950 235.513763,166.282135 
	C229.777817,160.830612 223.165527,156.178345 216.511719,151.839691 
	C200.130325,141.158142 184.449600,129.746017 171.912949,113.527679 
M342.592255,99.265076 
	C342.592255,95.879448 342.592255,92.493820 342.592255,89.964874 
	C341.637329,92.213806 340.420593,95.347984 338.998138,98.385841 
	C329.854126,117.913643 314.309357,131.606354 297.217041,143.801712 
	C289.095093,149.596725 280.469360,154.701797 272.496277,160.685028 
	C263.428711,167.489578 255.927261,175.871796 253.178894,187.238602 
	C249.267456,203.415634 256.485474,216.096054 267.125610,227.273254 
	C272.877289,233.315201 279.918213,237.403107 288.309204,238.749084 
	C286.812988,237.426468 285.101929,236.489822 283.432098,235.484680 
	C268.148682,226.285019 258.793762,206.976959 261.984161,190.932739 
	C263.970764,180.942413 269.923950,173.273697 277.759949,167.373520 
	C286.778534,160.582855 296.582550,154.845612 305.763947,148.258499 
	C322.882751,135.976776 337.137665,121.397972 342.592255,99.265076 
M311.044739,331.832031 
	C314.026184,321.026184 317.007629,310.220337 320.060455,299.155823 
	C317.214600,299.155823 314.935516,299.155823 312.422974,299.155823 
	C310.656372,306.769958 308.918793,314.258911 307.181244,321.747864 
	C306.906433,321.701843 306.631622,321.655823 306.356842,321.609802 
	C304.377258,314.107330 302.397675,306.604858 300.456879,299.249329 
	C297.951294,299.249329 295.877289,299.249329 293.716949,299.249329 
	C291.700378,306.931244 289.757385,314.332825 287.814423,321.734406 
	C287.525513,321.723236 287.236603,321.712067 286.947693,321.700897 
	C284.900970,314.102997 282.854218,306.505096 280.914734,299.305359 
	C278.030975,299.305359 275.816101,299.305359 273.314911,299.305359 
	C276.881653,311.787872 280.331879,323.862640 283.759338,335.857666 
	C286.310333,335.857666 288.446167,335.857666 290.580078,335.857666 
	C292.516418,328.230865 294.416779,320.745880 296.317139,313.260864 
	C296.693420,313.282562 297.069672,313.304291 297.445953,313.325989 
	C299.340240,320.820435 301.234558,328.314880 303.281311,336.412476 
	C305.873413,334.824615 310.383392,338.624542 311.044739,331.832031 
M210.412613,174.970596 
	C216.479874,176.643158 222.547119,178.315720 228.614365,179.988297 
	C228.846634,179.517700 229.078903,179.047089 229.311172,178.576492 
	C225.495178,176.096619 221.946259,172.971573 217.812119,171.260269 
	C206.327316,166.506165 194.623749,162.273575 182.961395,157.957077 
	C165.697113,151.567184 147.733322,146.457092 134.931030,131.450989 
	C137.099518,136.639587 139.381363,141.821686 142.833786,146.047394 
	C149.192719,153.830627 157.942932,158.651459 167.272125,161.823273 
	C181.241043,166.572510 195.483200,170.518082 210.412613,174.970596 
M216.933609,412.686188 
	C218.273575,413.350891 219.554276,414.202698 220.963394,414.649139 
	C228.601700,417.069031 235.555481,415.685883 241.254059,410.041107 
	C247.149048,404.201721 248.316727,396.931091 245.817062,389.248932 
	C243.470825,382.038300 237.948868,378.341034 230.596985,377.313416 
	C222.303833,376.154236 214.192642,380.771454 210.703323,388.515991 
	C206.739563,397.313538 208.777252,405.882324 216.933609,412.686188 
M130.385056,298.707153 
	C119.446640,301.669769 113.112503,311.617188 115.437851,322.181000 
	C117.654587,332.251373 127.000481,338.321777 137.252121,336.349915 
	C148.167297,334.250458 154.588715,324.841522 152.908249,313.409851 
	C151.422607,303.303467 142.630249,297.272705 130.385056,298.707153 
M397.168976,332.216248 
	C397.027466,338.971558 401.586029,335.113037 404.829773,335.974884 
	C404.829773,330.465393 404.829773,325.540009 404.829773,320.571228 
	C409.247803,320.571228 413.146423,320.571228 417.558563,320.571228 
	C417.558563,325.813782 417.558563,330.740936 417.558563,335.844879 
	C420.196228,335.844879 422.314087,335.844879 424.651093,335.844879 
	C424.651093,323.532715 424.651093,311.328125 424.651093,299.179474 
	C422.217224,299.179474 420.112854,299.179474 417.406677,299.179474 
	C417.406677,303.987579 417.406677,308.548309 417.406677,313.180298 
	C412.908661,313.180298 409.022156,313.180298 404.545776,313.180298 
	C404.545776,308.278870 404.545776,303.729034 404.545776,299.197937 
	C401.843719,299.197937 399.744080,299.197937 397.168427,299.197937 
	C397.168427,310.052582 397.168427,320.662994 397.168976,332.216248 
M198.050232,316.592804 
	C198.662460,303.119019 185.322220,294.876678 169.070984,299.428070 
	C169.070984,311.500061 169.070984,323.590698 169.070984,335.625305 
	C186.099884,339.838165 197.417633,332.680298 198.050232,316.592804 
M215.842392,189.871429 
	C221.985382,189.871429 228.128357,189.871429 235.899033,189.871429 
	C231.696838,187.799530 228.797348,185.406296 225.645264,185.007019 
	C217.974747,184.035355 210.182922,183.584763 202.447418,183.662888 
	C190.194443,183.786591 177.949066,184.767944 165.697235,184.840500 
	C161.676270,184.864319 157.645264,183.193085 153.072510,182.175400 
	C160.387070,193.787567 170.765793,197.232758 183.054321,195.519608 
	C193.726593,194.031784 204.301239,191.843872 215.842392,189.871429 
M342.302765,189.833710 
	C344.349487,187.494614 346.396179,185.155518 348.442902,182.816422 
	C338.350739,185.712021 328.658905,185.917282 318.824677,185.183212 
	C307.897186,184.367493 296.957703,183.494919 286.009918,183.248199 
	C279.203217,183.094788 272.705444,184.932556 267.097046,189.806808 
	C273.537292,189.806808 279.449310,189.230713 285.202789,189.940323 
	C294.077728,191.034897 302.832031,193.080399 311.659668,194.593246 
	C322.124329,196.386673 332.522644,197.425034 342.302765,189.833710 
M303.546661,389.536102 
	C303.546661,397.946045 303.546661,406.355988 303.546661,414.749115 
	C306.369812,414.749115 308.453217,414.749115 310.988708,414.749115 
	C310.988708,409.552094 310.988708,404.625641 310.988708,399.567993 
	C315.498871,399.567993 319.544678,399.567993 324.039917,399.567993 
	C324.039917,404.835602 324.039917,409.760406 324.039917,414.767120 
	C326.566864,414.767120 328.636505,414.767120 330.826355,414.767120 
	C330.826355,402.451019 330.826355,390.384064 330.826355,378.182587 
	C328.485260,378.182587 326.416290,378.182587 323.837280,378.182587 
	C323.837280,382.994385 323.837280,387.577118 323.837280,392.359558 
	C319.377930,392.359558 315.430756,392.359558 310.801819,392.359558 
	C310.801819,387.491211 310.801819,382.795380 310.801819,378.288849 
	C308.035614,378.288849 305.956665,378.288849 303.546722,378.288849 
	C303.546722,381.924896 303.546722,385.238098 303.546661,389.536102 
M274.477905,377.175720 
	C272.996704,377.353241 271.485809,377.400818 270.039459,377.730957 
	C264.072937,379.093170 260.947266,382.837097 260.922638,388.505646 
	C260.897400,394.317108 263.740509,397.652191 270.071106,399.130432 
	C271.686646,399.507690 273.530243,399.341583 274.939026,400.066467 
	C276.916107,401.083801 278.584564,402.700867 280.385040,404.061401 
	C278.558929,405.655396 276.659424,408.661163 274.920868,408.570770 
	C270.257202,408.328339 265.662384,406.760773 260.423737,405.580627 
	C261.068512,407.759003 261.067047,412.265625 262.946686,413.277374 
	C269.132263,416.606720 275.996735,417.095245 282.460114,413.221283 
	C286.624298,410.725342 288.134216,406.802124 287.688782,402.151642 
	C287.258911,397.663910 284.526123,394.910126 280.299408,393.719849 
	C277.587189,392.956024 274.613586,392.894684 272.088379,391.772858 
	C270.435303,391.038513 269.374573,388.970795 268.048553,387.500275 
	C269.646729,386.343109 271.325104,384.124603 272.827271,384.238129 
	C276.557312,384.519928 280.206940,385.865906 283.841156,386.772583 
	C284.591614,378.915314 284.591827,378.914246 276.310760,377.322906 
	C275.985291,377.260376 275.648834,377.254913 274.477905,377.175720 
M214.151749,323.483643 
	C214.151749,327.573334 214.151749,331.663055 214.151749,335.874939 
	C221.487946,335.874939 228.110718,335.874939 235.017700,335.874939 
	C235.017700,333.642090 235.017700,331.556000 235.017700,328.995300 
	C230.562836,328.995300 226.321915,328.995300 221.995026,328.995300 
	C221.995026,325.598846 221.995026,322.682312 221.995026,319.353516 
	C225.381622,319.353516 228.483200,319.353516 231.757614,319.353516 
	C231.757614,316.988678 231.757614,315.039612 231.757614,312.657471 
	C228.452713,312.657471 225.353333,312.657471 222.086060,312.657471 
	C222.086060,310.178772 222.086060,308.136688 222.086060,305.690826 
	C226.361023,305.690826 230.270996,305.690826 234.428070,305.690826 
	C234.428070,303.231995 234.428070,301.181396 234.428070,299.217224 
	C227.589584,299.217224 221.037613,299.217224 214.151749,299.217224 
	C214.151749,307.236938 214.151749,314.862427 214.151749,323.483643 
M102.118935,333.385345 
	C102.353058,331.095398 102.587181,328.805450 102.868736,326.051575 
	C94.406525,330.443848 87.744682,330.397736 84.025192,326.373566 
	C80.457535,322.513611 79.963127,313.963867 83.050270,309.513947 
	C86.351921,304.754822 92.735077,304.098877 102.808212,308.033783 
	C101.903923,304.716461 102.033005,300.813873 100.303078,299.631683 
	C94.129585,295.412933 80.491005,299.396027 76.223061,305.978180 
	C71.388023,313.434937 72.256279,325.403473 78.081398,331.594666 
	C83.674454,337.539215 92.996475,338.464294 102.118935,333.385345 
M240.198456,144.062759 
	C239.190369,143.517776 238.182297,142.972794 237.231125,142.458572 
	C243.446579,139.363480 249.238220,136.479431 256.024994,133.099854 
	C255.218185,135.930145 254.791550,137.426773 254.586075,138.147583 
	C261.643829,136.263107 268.948456,134.312714 276.471222,132.304077 
	C274.477448,131.278732 272.120880,129.119308 269.656372,128.988068 
	C263.730774,128.672546 257.535309,128.393005 251.846085,129.756683 
	C241.153214,132.319733 237.532227,130.959488 234.356628,120.661804 
	C232.687683,127.134079 234.889725,132.213196 239.209198,136.703979 
	C233.718475,138.405350 231.907440,137.172714 229.545181,130.620316 
	C225.442795,139.624619 227.962280,144.694946 239.178772,151.209946 
	C239.833176,156.308289 240.412811,160.824097 240.992447,165.339890 
	C241.289307,165.235291 241.586166,165.130707 241.883026,165.026108 
	C243.707108,158.135910 245.531189,151.245712 247.376907,144.273849 
	C245.531311,144.273849 243.276154,144.273849 240.198456,144.062759 
M195.563568,410.465057 
	C194.483047,409.689117 193.444229,408.323975 192.314468,408.244019 
	C188.401962,407.967102 184.457825,408.137238 179.815155,408.137238 
	C185.223236,397.909790 190.292313,388.323425 195.628067,378.232758 
	C186.525070,378.232758 178.172302,378.232758 169.567291,378.232758 
	C169.567291,380.551147 169.567291,382.600800 169.567291,385.132538 
	C174.489807,385.132538 179.165298,385.132538 184.443130,385.132538 
	C178.883881,395.271820 173.671097,404.779175 168.125687,414.893250 
	C177.768631,414.893250 186.475128,414.893250 195.571655,414.893250 
	C195.571655,413.544220 195.571655,412.413055 195.563568,410.465057 
M356.670563,103.980423 
	C347.661652,126.265221 331.716278,142.227722 309.753143,154.036499 
	C337.781647,152.331116 367.363953,117.139725 359.478119,96.122261 
	C358.589630,98.607971 357.757446,100.936150 356.670563,103.980423 
M300.039062,133.510773 
	C305.649139,128.596024 311.846741,124.201859 316.753662,118.664055 
	C329.035461,104.803207 332.048035,88.683174 326.494385,70.957802 
	C323.935455,97.551979 312.020294,119.254829 291.948181,136.749863 
	C292.220856,137.049255 292.493530,137.348633 292.766205,137.648026 
	C295.002289,136.412354 297.238342,135.176666 300.039062,133.510773 
M181.966415,98.365906 
	C179.619476,89.928780 177.272537,81.491653 174.822617,72.684364 
	C167.303192,96.479904 178.400574,120.943016 210.268707,138.134262 
	C198.555450,126.772240 188.341812,114.360443 181.966415,98.365906 
M157.431366,137.073898 
	C167.742996,145.920563 183.519028,153.879990 190.626617,153.268570 
	C166.672836,140.216690 150.188934,121.576004 141.788254,96.059662 
	C140.610687,112.039948 145.173447,125.679153 157.431366,137.073898 
M375.451538,298.977570 
	C369.368073,298.977570 363.284607,298.977570 357.275482,298.977570 
	C357.275482,301.471588 357.275482,303.386566 357.275482,305.535278 
	C360.343994,305.535278 363.090820,305.535278 366.233704,305.535278 
	C366.233704,315.828217 366.233704,325.751221 366.233704,335.842377 
	C368.905914,335.842377 371.170654,335.842377 374.001129,335.842377 
	C374.001129,325.651093 374.001129,315.604492 374.001129,305.134705 
	C377.285156,305.134705 380.017029,305.134705 383.086914,305.134705 
	C383.086914,303.726227 383.140106,302.753632 383.071777,301.789581 
	C383.005280,300.851166 382.814392,299.921570 382.676605,298.977509 
	C380.403320,298.977509 378.420959,298.977509 375.451538,298.977570 
M178.031342,173.850342 
	C162.166748,170.381485 147.024780,165.417740 135.161972,152.207397 
	C139.022964,170.770218 172.847321,184.457657 192.888672,176.231232 
	C188.018219,175.437653 183.448990,174.693161 178.031342,173.850342 
M334.286560,176.778900 
	C348.310638,174.221802 360.183044,168.670883 365.806061,154.280106 
	C349.534729,169.838882 328.743530,173.391235 307.813110,176.891785 
	C316.351288,176.891785 324.889465,176.891785 334.286560,176.778900 
M233.630783,263.109314 
	C241.663574,250.291199 246.163620,236.806915 244.093811,230.912323 
	C239.144348,243.956696 230.348175,253.362335 217.872864,260.350311 
	C222.029373,263.537689 225.519424,266.213959 229.192871,269.030853 
	C230.824478,266.850586 232.012497,265.263062 233.630783,263.109314 
M264.607300,243.789581 
	C262.156464,239.796310 259.705597,235.803024 257.254761,231.809753 
	C258.485687,245.882355 263.541992,258.053802 272.717590,269.017059 
	C276.438049,266.083557 279.873779,263.374603 282.697327,261.148285 
	C276.486237,255.258850 270.751648,249.821259 264.607300,243.789581 
M341.957336,309.526978 
	C341.957336,306.087128 341.957336,302.647308 341.957336,299.168457 
	C339.103088,299.168457 336.838684,299.168457 334.320129,299.168457 
	C334.320129,311.417175 334.320129,323.462860 334.320129,335.692871 
	C336.886047,335.692871 339.251099,335.692871 341.956757,335.692871 
	C341.956757,327.090515 341.956757,318.805695 341.957336,309.526978 
M191.639114,216.191666 
	C206.785629,216.086060 218.925949,210.137955 227.755325,197.652786 
	C212.625778,206.208542 196.554810,211.783081 179.129227,213.304901 
	C179.147186,213.732971 179.165146,214.161057 179.183105,214.589142 
	C183.054581,215.110870 186.926071,215.632614 191.639114,216.191666 
M298.659515,214.949402 
	C306.437225,216.481705 314.157318,216.983078 321.756683,213.711121 
	C304.829529,211.810867 289.317108,205.837433 274.342926,198.059738 
	C280.101440,206.819397 288.233948,211.870346 298.659515,214.949402 
M301.168915,231.803864 
	C304.610596,230.229736 308.052246,228.655609 311.493927,227.081482 
	C311.411804,226.567184 311.329712,226.052887 311.247620,225.538589 
	C292.552216,230.213669 278.603790,224.737595 270.082153,207.084442 
	C270.054169,209.166870 270.068542,211.270538 270.585419,213.242462 
	C274.060791,226.500839 285.067810,233.374542 301.168915,231.803864 
M227.179230,214.551468 
	C217.783661,227.144653 204.897766,229.080307 190.372162,226.009216 
	C199.555115,233.555450 210.871048,234.329346 220.073196,228.567108 
	C227.888641,223.673157 232.887146,214.021652 231.311935,207.185654 
	C230.140640,209.356415 228.888931,211.676224 227.179230,214.551468 
M238.166138,267.819305 
	C237.616730,269.104492 237.067322,270.389648 236.219849,272.372131 
	C240.739471,273.172089 244.665176,273.866943 248.832123,274.604492 
	C248.832123,261.113007 248.832123,248.455490 248.832123,237.248978 
	C245.692215,246.388367 242.128616,256.760986 238.166138,267.819305 
M254.043732,237.865067 
	C253.753235,237.566925 253.462738,237.268799 253.172241,236.970657 
	C253.133316,237.132675 253.060959,237.294556 253.060242,237.456741 
	C253.031418,243.953598 253.001129,250.450470 252.988297,256.947357 
	C252.976944,262.701599 252.985916,268.455902 252.985916,274.825958 
	C257.638824,273.855774 261.464813,273.057983 264.310333,272.464630 
	C260.801392,260.763214 257.479980,249.687271 254.043732,237.865067 
M232.147812,236.730194 
	C224.882095,240.481995 217.616394,244.233795 210.027725,248.152374 
	C210.972214,249.822052 212.231110,252.047577 213.433380,254.172974 
	C225.447586,250.482880 239.872177,237.080719 240.473511,229.346359 
	C237.883392,231.655762 235.293289,233.965179 232.147812,236.730194 
M267.922455,240.569199 
	C272.597656,244.255035 277.022675,248.331116 282.010681,251.529068 
	C288.412567,255.633545 289.705872,254.805618 291.698578,246.695847 
	C280.109894,244.512756 270.538025,238.300888 261.947052,230.211426 
	C261.636627,230.646606 261.326202,231.081772 261.015808,231.516953 
	C263.155182,234.365265 265.294586,237.213577 267.922455,240.569199 
M257.211517,146.889771 
	C254.540070,152.818008 254.937531,158.275085 259.951874,163.256531 
	C257.940552,153.160034 261.346191,145.440292 270.584961,139.697098 
	C263.516846,140.085754 261.622864,141.119171 257.211517,146.889771 
M197.499878,199.987274 
	C188.801117,200.839737 180.102356,201.692184 171.051392,202.579163 
	C172.907181,203.303482 174.492569,204.186890 176.188248,204.538879 
	C184.111679,206.183640 191.850006,206.600418 197.499878,199.987274 
M308.297058,200.557632 
	C306.471130,200.345566 304.645203,200.133484 302.819275,199.921417 
	C311.367493,206.215912 320.303650,207.184006 330.843018,202.449066 
	C322.828979,201.822266 315.985474,201.287033 308.297058,200.557632 
z"/>
<path fill="#CAA769" opacity="1.000000" stroke="none" 
	d="
M172.122940,113.818878 
	C184.449600,129.746017 200.130325,141.158142 216.511719,151.839691 
	C223.165527,156.178345 229.777817,160.830612 235.513763,166.282135 
	C256.413940,186.145950 253.006821,209.095428 233.690613,228.174454 
	C227.942245,233.852249 221.111389,237.807114 214.024063,239.011230 
	C219.267899,234.415405 225.984161,230.068863 230.683624,224.127182 
	C245.951935,204.822968 243.566284,183.251083 224.475342,167.805893 
	C215.727188,160.728333 205.719543,155.230347 196.524628,148.677094 
	C181.122589,137.699982 167.846024,124.779976 161.353928,106.416695 
	C159.560211,101.343063 158.780029,95.911095 158.397156,90.452682 
	C162.902420,98.144348 167.407684,105.836014 172.122940,113.818878 
z"/>
<path fill="#CAA769" opacity="1.000000" stroke="none" 
	d="
M342.466003,99.643494 
	C337.137665,121.397972 322.882751,135.976776 305.763947,148.258499 
	C296.582550,154.845612 286.778534,160.582855 277.759949,167.373520 
	C269.923950,173.273697 263.970764,180.942413 261.984161,190.932739 
	C258.793762,206.976959 268.148682,226.285019 283.432098,235.484680 
	C285.101929,236.489822 286.812988,237.426468 288.309204,238.749084 
	C279.918213,237.403107 272.877289,233.315201 267.125610,227.273254 
	C256.485474,216.096054 249.267456,203.415634 253.178894,187.238602 
	C255.927261,175.871796 263.428711,167.489578 272.496277,160.685028 
	C280.469360,154.701797 289.095093,149.596725 297.217041,143.801712 
	C314.309357,131.606354 329.854126,117.913643 338.998138,98.385841 
	C340.420593,95.347984 341.637329,92.213806 342.592255,89.964874 
	C342.592255,92.493820 342.592255,95.879448 342.466003,99.643494 
z"/>
<path fill="#CCA96A" opacity="1.000000" stroke="none" 
	d="
M310.973572,332.240875 
	C310.383392,338.624542 305.873413,334.824615 303.281311,336.412476 
	C301.234558,328.314880 299.340240,320.820435 297.445953,313.325989 
	C297.069672,313.304291 296.693420,313.282562 296.317139,313.260864 
	C294.416779,320.745880 292.516418,328.230865 290.580078,335.857666 
	C288.446167,335.857666 286.310333,335.857666 283.759338,335.857666 
	C280.331879,323.862640 276.881653,311.787872 273.314911,299.305359 
	C275.816101,299.305359 278.030975,299.305359 280.914734,299.305359 
	C282.854218,306.505096 284.900970,314.102997 286.947693,321.700897 
	C287.236603,321.712067 287.525513,321.723236 287.814423,321.734406 
	C289.757385,314.332825 291.700378,306.931244 293.716949,299.249329 
	C295.877289,299.249329 297.951294,299.249329 300.456879,299.249329 
	C302.397675,306.604858 304.377258,314.107330 306.356842,321.609802 
	C306.631622,321.655823 306.906433,321.701843 307.181244,321.747864 
	C308.918793,314.258911 310.656372,306.769958 312.422974,299.155823 
	C314.935516,299.155823 317.214600,299.155823 320.060455,299.155823 
	C317.007629,310.220337 314.026184,321.026184 310.973572,332.240875 
z"/>
<path fill="#C9A768" opacity="1.000000" stroke="none" 
	d="
M271.392639,179.801605 
	C283.114594,169.163605 298.066620,165.236206 312.406647,160.017349 
	C322.085358,156.494919 331.813782,153.080780 341.345032,149.189590 
	C350.828979,145.317719 359.358063,139.889923 365.786835,131.345047 
	C365.678497,137.164154 362.158234,143.740845 356.557159,148.814835 
	C348.243927,156.345764 338.353760,161.216049 327.810211,164.409393 
	C309.381409,169.990952 290.753021,174.913361 271.839050,179.929733 
	C271.469849,179.747482 271.392639,179.801605 271.392639,179.801605 
z"/>
<path fill="#CAA769" opacity="1.000000" stroke="none" 
	d="
M210.010880,174.888031 
	C195.483200,170.518082 181.241043,166.572510 167.272125,161.823273 
	C157.942932,158.651459 149.192719,153.830627 142.833786,146.047394 
	C139.381363,141.821686 137.099518,136.639587 134.931030,131.450989 
	C147.733322,146.457092 165.697113,151.567184 182.961395,157.957077 
	C194.623749,162.273575 206.327316,166.506165 217.812119,171.260269 
	C221.946259,172.971573 225.495178,176.096619 229.311172,178.576492 
	C229.078903,179.047089 228.846634,179.517700 228.614365,179.988297 
	C222.547119,178.315720 216.479874,176.643158 210.010880,174.888031 
z"/>
<path fill="#CAA869" opacity="1.000000" stroke="none" 
	d="
M216.639771,412.465057 
	C208.777252,405.882324 206.739563,397.313538 210.703323,388.515991 
	C214.192642,380.771454 222.303833,376.154236 230.596985,377.313416 
	C237.948868,378.341034 243.470825,382.038300 245.817062,389.248932 
	C248.316727,396.931091 247.149048,404.201721 241.254059,410.041107 
	C235.555481,415.685883 228.601700,417.069031 220.963394,414.649139 
	C219.554276,414.202698 218.273575,413.350891 216.639771,412.465057 
M229.913879,384.309235 
	C222.546066,383.974243 218.069717,387.247345 216.991165,393.758331 
	C215.807419,400.904297 218.703629,406.368103 224.594101,408.101410 
	C230.878510,409.950653 236.238632,407.377899 238.246460,401.548523 
	C240.777420,394.200409 237.752197,387.400391 229.913879,384.309235 
z"/>
<path fill="#CBA869" opacity="1.000000" stroke="none" 
	d="
M130.787994,298.610443 
	C142.630249,297.272705 151.422607,303.303467 152.908249,313.409851 
	C154.588715,324.841522 148.167297,334.250458 137.252121,336.349915 
	C127.000481,338.321777 117.654587,332.251373 115.437851,322.181000 
	C113.112503,311.617188 119.446640,301.669769 130.787994,298.610443 
M141.492233,307.979828 
	C135.852921,304.156189 130.499710,304.210571 126.571083,308.131470 
	C122.363144,312.331085 121.693657,320.393707 125.155495,325.178925 
	C127.865326,328.924713 132.845932,330.538971 137.627060,329.200348 
	C142.418549,327.858795 145.124496,324.413910 144.910950,319.723694 
	C144.739426,315.956451 143.048767,312.258392 141.492233,307.979828 
z"/>
<path fill="#C9A768" opacity="1.000000" stroke="none" 
	d="
M397.168701,331.744812 
	C397.168427,320.662994 397.168427,310.052582 397.168427,299.197937 
	C399.744080,299.197937 401.843719,299.197937 404.545776,299.197937 
	C404.545776,303.729034 404.545776,308.278870 404.545776,313.180298 
	C409.022156,313.180298 412.908661,313.180298 417.406677,313.180298 
	C417.406677,308.548309 417.406677,303.987579 417.406677,299.179474 
	C420.112854,299.179474 422.217224,299.179474 424.651093,299.179474 
	C424.651093,311.328125 424.651093,323.532715 424.651093,335.844879 
	C422.314087,335.844879 420.196228,335.844879 417.558563,335.844879 
	C417.558563,330.740936 417.558563,325.813782 417.558563,320.571228 
	C413.146423,320.571228 409.247803,320.571228 404.829773,320.571228 
	C404.829773,325.540009 404.829773,330.465393 404.829773,335.974884 
	C401.586029,335.113037 397.027466,338.971558 397.168701,331.744812 
z"/>
<path fill="#CDA96A" opacity="1.000000" stroke="none" 
	d="
M198.050690,317.041321 
	C197.417633,332.680298 186.099884,339.838165 169.070984,335.625305 
	C169.070984,323.590698 169.070984,311.500061 169.070984,299.428070 
	C185.322220,294.876678 198.662460,303.119019 198.050690,317.041321 
M189.031967,310.914551 
	C186.291748,305.720093 181.659012,304.936737 176.040771,305.268921 
	C176.040771,309.468964 176.040771,313.429626 176.040771,317.390259 
	C176.040771,321.497772 176.040771,325.605286 176.040771,329.633881 
	C184.467117,330.674347 189.350555,327.690491 190.021713,320.992554 
	C190.327591,317.940216 189.601471,314.784454 189.031967,310.914551 
z"/>
<path fill="#C6A467" opacity="1.000000" stroke="none" 
	d="
M215.380707,189.918396 
	C204.301239,191.843872 193.726593,194.031784 183.054321,195.519608 
	C170.765793,197.232758 160.387070,193.787567 153.072510,182.175400 
	C157.645264,183.193085 161.676270,184.864319 165.697235,184.840500 
	C177.949066,184.767944 190.194443,183.786591 202.447418,183.662888 
	C210.182922,183.584763 217.974747,184.035355 225.645264,185.007019 
	C228.797348,185.406296 231.696838,187.799530 235.899033,189.871429 
	C228.128357,189.871429 221.985382,189.871429 215.380707,189.918396 
z"/>
<path fill="#C7A567" opacity="1.000000" stroke="none" 
	d="
M342.004517,190.037338 
	C332.522644,197.425034 322.124329,196.386673 311.659668,194.593246 
	C302.832031,193.080399 294.077728,191.034897 285.202789,189.940323 
	C279.449310,189.230713 273.537292,189.806808 267.097046,189.806808 
	C272.705444,184.932556 279.203217,183.094788 286.009918,183.248199 
	C296.957703,183.494919 307.897186,184.367493 318.824677,185.183212 
	C328.658905,185.917282 338.350739,185.712021 348.442902,182.816422 
	C346.396179,185.155518 344.349487,187.494614 342.004517,190.037338 
z"/>
<path fill="#D0AC6C" opacity="1.000000" stroke="none" 
	d="
M303.546692,389.043701 
	C303.546722,385.238098 303.546722,381.924896 303.546722,378.288849 
	C305.956665,378.288849 308.035614,378.288849 310.801819,378.288849 
	C310.801819,382.795380 310.801819,387.491211 310.801819,392.359558 
	C315.430756,392.359558 319.377930,392.359558 323.837280,392.359558 
	C323.837280,387.577118 323.837280,382.994385 323.837280,378.182587 
	C326.416290,378.182587 328.485260,378.182587 330.826355,378.182587 
	C330.826355,390.384064 330.826355,402.451019 330.826355,414.767120 
	C328.636505,414.767120 326.566864,414.767120 324.039917,414.767120 
	C324.039917,409.760406 324.039917,404.835602 324.039917,399.567993 
	C319.544678,399.567993 315.498871,399.567993 310.988708,399.567993 
	C310.988708,404.625641 310.988708,409.552094 310.988708,414.749115 
	C308.453217,414.749115 306.369812,414.749115 303.546661,414.749115 
	C303.546661,406.355988 303.546661,397.946045 303.546692,389.043701 
z"/>
<path fill="#CAA769" opacity="1.000000" stroke="none" 
	d="
M274.897705,377.199280 
	C275.648834,377.254913 275.985291,377.260376 276.310760,377.322906 
	C284.591827,378.914246 284.591614,378.915314 283.841156,386.772583 
	C280.206940,385.865906 276.557312,384.519928 272.827271,384.238129 
	C271.325104,384.124603 269.646729,386.343109 268.048553,387.500275 
	C269.374573,388.970795 270.435303,391.038513 272.088379,391.772858 
	C274.613586,392.894684 277.587189,392.956024 280.299408,393.719849 
	C284.526123,394.910126 287.258911,397.663910 287.688782,402.151642 
	C288.134216,406.802124 286.624298,410.725342 282.460114,413.221283 
	C275.996735,417.095245 269.132263,416.606720 262.946686,413.277374 
	C261.067047,412.265625 261.068512,407.759003 260.423737,405.580627 
	C265.662384,406.760773 270.257202,408.328339 274.920868,408.570770 
	C276.659424,408.661163 278.558929,405.655396 280.385040,404.061401 
	C278.584564,402.700867 276.916107,401.083801 274.939026,400.066467 
	C273.530243,399.341583 271.686646,399.507690 270.071106,399.130432 
	C263.740509,397.652191 260.897400,394.317108 260.922638,388.505646 
	C260.947266,382.837097 264.072937,379.093170 270.039459,377.730957 
	C271.485809,377.400818 272.996704,377.353241 274.897705,377.199280 
z"/>
<path fill="#C7A567" opacity="1.000000" stroke="none" 
	d="
M214.151749,322.985779 
	C214.151749,314.862427 214.151749,307.236938 214.151749,299.217224 
	C221.037613,299.217224 227.589584,299.217224 234.428070,299.217224 
	C234.428070,301.181396 234.428070,303.231995 234.428070,305.690826 
	C230.270996,305.690826 226.361023,305.690826 222.086060,305.690826 
	C222.086060,308.136688 222.086060,310.178772 222.086060,312.657471 
	C225.353333,312.657471 228.452713,312.657471 231.757614,312.657471 
	C231.757614,315.039612 231.757614,316.988678 231.757614,319.353516 
	C228.483200,319.353516 225.381622,319.353516 221.995026,319.353516 
	C221.995026,322.682312 221.995026,325.598846 221.995026,328.995300 
	C226.321915,328.995300 230.562836,328.995300 235.017700,328.995300 
	C235.017700,331.556000 235.017700,333.642090 235.017700,335.874939 
	C228.110718,335.874939 221.487946,335.874939 214.151749,335.874939 
	C214.151749,331.663055 214.151749,327.573334 214.151749,322.985779 
z"/>
<path fill="#C8A668" opacity="1.000000" stroke="none" 
	d="
M101.830185,333.654053 
	C92.996475,338.464294 83.674454,337.539215 78.081398,331.594666 
	C72.256279,325.403473 71.388023,313.434937 76.223061,305.978180 
	C80.491005,299.396027 94.129585,295.412933 100.303078,299.631683 
	C102.033005,300.813873 101.903923,304.716461 102.808212,308.033783 
	C92.735077,304.098877 86.351921,304.754822 83.050270,309.513947 
	C79.963127,313.963867 80.457535,322.513611 84.025192,326.373566 
	C87.744682,330.397736 94.406525,330.443848 102.868736,326.051575 
	C102.587181,328.805450 102.353058,331.095398 101.830185,333.654053 
z"/>
<path fill="#C5A366" opacity="1.000000" stroke="none" 
	d="
M240.609711,144.168304 
	C243.276154,144.273849 245.531311,144.273849 247.376907,144.273849 
	C245.531189,151.245712 243.707108,158.135910 241.883026,165.026108 
	C241.586166,165.130707 241.289307,165.235291 240.992447,165.339890 
	C240.412811,160.824097 239.833176,156.308289 239.178772,151.209946 
	C227.962280,144.694946 225.442795,139.624619 229.545181,130.620316 
	C231.907440,137.172714 233.718475,138.405350 239.209198,136.703979 
	C234.889725,132.213196 232.687683,127.134079 234.356628,120.661804 
	C237.532227,130.959488 241.153214,132.319733 251.846085,129.756683 
	C257.535309,128.393005 263.730774,128.672546 269.656372,128.988068 
	C272.120880,129.119308 274.477448,131.278732 276.471222,132.304077 
	C268.948456,134.312714 261.643829,136.263107 254.586075,138.147583 
	C254.791550,137.426773 255.218185,135.930145 256.024994,133.099854 
	C249.238220,136.479431 243.446579,139.363480 237.231125,142.458572 
	C238.182297,142.972794 239.190369,143.517776 240.609711,144.168304 
z"/>
<path fill="#C9A768" opacity="1.000000" stroke="none" 
	d="
M195.567612,410.873474 
	C195.571655,412.413055 195.571655,413.544220 195.571655,414.893250 
	C186.475128,414.893250 177.768631,414.893250 168.125687,414.893250 
	C173.671097,404.779175 178.883881,395.271820 184.443130,385.132538 
	C179.165298,385.132538 174.489807,385.132538 169.567291,385.132538 
	C169.567291,382.600800 169.567291,380.551147 169.567291,378.232758 
	C178.172302,378.232758 186.525070,378.232758 195.628067,378.232758 
	C190.292313,388.323425 185.223236,397.909790 179.815155,408.137238 
	C184.457825,408.137238 188.401962,407.967102 192.314468,408.244019 
	C193.444229,408.323975 194.483047,409.689117 195.567612,410.873474 
z"/>
<path fill="#C7A567" opacity="1.000000" stroke="none" 
	d="
M356.797913,103.622375 
	C357.757446,100.936150 358.589630,98.607971 359.478119,96.122261 
	C367.363953,117.139725 337.781647,152.331116 309.753143,154.036499 
	C331.716278,142.227722 347.661652,126.265221 356.797913,103.622375 
z"/>
<path fill="#C9A768" opacity="1.000000" stroke="none" 
	d="
M299.756744,133.725891 
	C297.238342,135.176666 295.002289,136.412354 292.766205,137.648026 
	C292.493530,137.348633 292.220856,137.049255 291.948181,136.749863 
	C312.020294,119.254829 323.935455,97.551979 326.494385,70.957802 
	C332.048035,88.683174 329.035461,104.803207 316.753662,118.664055 
	C311.846741,124.201859 305.649139,128.596024 299.756744,133.725891 
z"/>
<path fill="#C8A668" opacity="1.000000" stroke="none" 
	d="
M182.080048,98.734299 
	C188.341812,114.360443 198.555450,126.772240 210.268707,138.134262 
	C178.400574,120.943016 167.303192,96.479904 174.822617,72.684364 
	C177.272537,81.491653 179.619476,89.928780 182.080048,98.734299 
z"/>
<path fill="#C7A567" opacity="1.000000" stroke="none" 
	d="
M157.179092,136.826904 
	C145.173447,125.679153 140.610687,112.039948 141.788254,96.059662 
	C150.188934,121.576004 166.672836,140.216690 190.626617,153.268570 
	C183.519028,153.879990 167.742996,145.920563 157.179092,136.826904 
z"/>
<path fill="#CFAB6B" opacity="1.000000" stroke="none" 
	d="
M375.945068,298.977539 
	C378.420959,298.977509 380.403320,298.977509 382.676605,298.977509 
	C382.814392,299.921570 383.005280,300.851166 383.071777,301.789581 
	C383.140106,302.753632 383.086914,303.726227 383.086914,305.134705 
	C380.017029,305.134705 377.285156,305.134705 374.001129,305.134705 
	C374.001129,315.604492 374.001129,325.651093 374.001129,335.842377 
	C371.170654,335.842377 368.905914,335.842377 366.233704,335.842377 
	C366.233704,325.751221 366.233704,315.828217 366.233704,305.535278 
	C363.090820,305.535278 360.343994,305.535278 357.275482,305.535278 
	C357.275482,303.386566 357.275482,301.471588 357.275482,298.977570 
	C363.284607,298.977570 369.368073,298.977570 375.945068,298.977539 
z"/>
<path fill="#C2A165" opacity="1.000000" stroke="none" 
	d="
M178.455536,173.899506 
	C183.448990,174.693161 188.018219,175.437653 192.888672,176.231232 
	C172.847321,184.457657 139.022964,170.770218 135.161972,152.207397 
	C147.024780,165.417740 162.166748,170.381485 178.455536,173.899506 
z"/>
<path fill="#C2A165" opacity="1.000000" stroke="none" 
	d="
M333.857117,176.835342 
	C324.889465,176.891785 316.351288,176.891785 307.813110,176.891785 
	C328.743530,173.391235 349.534729,169.838882 365.806061,154.280106 
	C360.183044,168.670883 348.310638,174.221802 333.857117,176.835342 
z"/>
<path fill="#C8A668" opacity="1.000000" stroke="none" 
	d="
M233.415649,263.392426 
	C232.012497,265.263062 230.824478,266.850586 229.192871,269.030853 
	C225.519424,266.213959 222.029373,263.537689 217.872864,260.350311 
	C230.348175,253.362335 239.144348,243.956696 244.093811,230.912323 
	C246.163620,236.806915 241.663574,250.291199 233.415649,263.392426 
z"/>
<path fill="#CAA769" opacity="1.000000" stroke="none" 
	d="
M264.812195,244.086624 
	C270.751648,249.821259 276.486237,255.258850 282.697327,261.148285 
	C279.873779,263.374603 276.438049,266.083557 272.717590,269.017059 
	C263.541992,258.053802 258.485687,245.882355 257.254761,231.809753 
	C259.705597,235.803024 262.156464,239.796310 264.812195,244.086624 
z"/>
<path fill="#CCA96A" opacity="1.000000" stroke="none" 
	d="
M341.957031,310.023926 
	C341.956757,318.805695 341.956757,327.090515 341.956757,335.692871 
	C339.251099,335.692871 336.886047,335.692871 334.320129,335.692871 
	C334.320129,323.462860 334.320129,311.417175 334.320129,299.168457 
	C336.838684,299.168457 339.103088,299.168457 341.957336,299.168457 
	C341.957336,302.647308 341.957336,306.087128 341.957031,310.023926 
z"/>
<path fill="#C7A567" opacity="1.000000" stroke="none" 
	d="
M191.218338,216.173004 
	C186.926071,215.632614 183.054581,215.110870 179.183105,214.589142 
	C179.165146,214.161057 179.147186,213.732971 179.129227,213.304901 
	C196.554810,211.783081 212.625778,206.208542 227.755325,197.652786 
	C218.925949,210.137955 206.785629,216.086060 191.218338,216.173004 
z"/>
<path fill="#C6A467" opacity="1.000000" stroke="none" 
	d="
M298.259949,214.853745 
	C288.233948,211.870346 280.101440,206.819397 274.342926,198.059738 
	C289.317108,205.837433 304.829529,211.810867 321.756683,213.711121 
	C314.157318,216.983078 306.437225,216.481705 298.259949,214.853745 
z"/>
<path fill="#C5A366" opacity="1.000000" stroke="none" 
	d="
M300.767578,231.880310 
	C285.067810,233.374542 274.060791,226.500839 270.585419,213.242462 
	C270.068542,211.270538 270.054169,209.166870 270.082153,207.084442 
	C278.603790,224.737595 292.552216,230.213669 311.247620,225.538589 
	C311.329712,226.052887 311.411804,226.567184 311.493927,227.081482 
	C308.052246,228.655609 304.610596,230.229736 300.767578,231.880310 
z"/>
<path fill="#C7A567" opacity="1.000000" stroke="none" 
	d="
M227.408218,214.273758 
	C228.888931,211.676224 230.140640,209.356415 231.311935,207.185654 
	C232.887146,214.021652 227.888641,223.673157 220.073196,228.567108 
	C210.871048,234.329346 199.555115,233.555450 190.372162,226.009216 
	C204.897766,229.080307 217.783661,227.144653 227.408218,214.273758 
z"/>
<path fill="#CDA96A" opacity="1.000000" stroke="none" 
	d="
M238.365570,267.476440 
	C242.128616,256.760986 245.692215,246.388367 248.832123,237.248978 
	C248.832123,248.455490 248.832123,261.113007 248.832123,274.604492 
	C244.665176,273.866943 240.739471,273.172089 236.219849,272.372131 
	C237.067322,270.389648 237.616730,269.104492 238.365570,267.476440 
z"/>
<path fill="#CCA96A" opacity="1.000000" stroke="none" 
	d="
M254.101166,238.238190 
	C257.479980,249.687271 260.801392,260.763214 264.310333,272.464630 
	C261.464813,273.057983 257.638824,273.855774 252.985916,274.825958 
	C252.985916,268.455902 252.976944,262.701599 252.988297,256.947357 
	C253.001129,250.450470 253.031418,243.953598 253.060242,237.456741 
	C253.060959,237.294556 253.133316,237.132675 253.172241,236.970657 
	C253.462738,237.268799 253.753235,237.566925 254.101166,238.238190 
z"/>
<path fill="#C6A467" opacity="1.000000" stroke="none" 
	d="
M232.425507,236.502380 
	C235.293289,233.965179 237.883392,231.655762 240.476990,229.350433 
	C239.872177,237.080719 225.447586,250.482880 213.433380,254.172974 
	C212.231110,252.047577 210.972214,249.822052 210.027725,248.152374 
	C217.616394,244.233795 224.882095,240.481995 232.425507,236.502380 
z"/>
<path fill="#C8A668" opacity="1.000000" stroke="none" 
	d="
M267.678223,240.315552 
	C265.294586,237.213577 263.155182,234.365265 261.015808,231.516953 
	C261.326202,231.081772 261.636627,230.646606 261.947052,230.211426 
	C270.538025,238.300888 280.109894,244.512756 291.698578,246.695847 
	C289.705872,254.805618 288.412567,255.633545 282.010681,251.529068 
	C277.022675,248.331116 272.597656,244.255035 267.678223,240.315552 
z"/>
<path fill="#BF9E63" opacity="1.000000" stroke="none" 
	d="
M257.415924,146.578247 
	C261.622864,141.119171 263.516846,140.085754 270.584961,139.697098 
	C261.346191,145.440292 257.940552,153.160034 259.951874,163.256531 
	C254.937531,158.275085 254.540070,152.818008 257.415924,146.578247 
z"/>
<path fill="#BF9E63" opacity="1.000000" stroke="none" 
	d="
M197.853058,200.088776 
	C191.850006,206.600418 184.111679,206.183640 176.188248,204.538879 
	C174.492569,204.186890 172.907181,203.303482 171.051392,202.579163 
	C180.102356,201.692184 188.801117,200.839737 197.853058,200.088776 
z"/>
<path fill="#BF9E63" opacity="1.000000" stroke="none" 
	d="
M308.719482,200.654709 
	C315.985474,201.287033 322.828979,201.822266 330.843018,202.449066 
	C320.303650,207.184006 311.367493,206.215912 302.819275,199.921417 
	C304.645203,200.133484 306.471130,200.345566 308.719482,200.654709 
z"/>
<path fill="#C9A768" opacity="1.000000" stroke="none" 
	d="
M271.452667,179.703583 
	C271.435486,179.659668 271.696686,179.835724 271.696686,179.835724 
	C271.696686,179.835724 271.538361,179.595551 271.465515,179.698578 
	C271.392639,179.801605 271.469849,179.747482 271.452667,179.703583 
z"/>
<path fill="#040402" opacity="1.000000" stroke="none" 
	d="
M230.292480,384.414917 
	C237.752197,387.400391 240.777420,394.200409 238.246460,401.548523 
	C236.238632,407.377899 230.878510,409.950653 224.594101,408.101410 
	C218.703629,406.368103 215.807419,400.904297 216.991165,393.758331 
	C218.069717,387.247345 222.546066,383.974243 230.292480,384.414917 
z"/>
<path fill="#050403" opacity="1.000000" stroke="none" 
	d="
M141.762222,308.254730 
	C143.048767,312.258392 144.739426,315.956451 144.910950,319.723694 
	C145.124496,324.413910 142.418549,327.858795 137.627060,329.200348 
	C132.845932,330.538971 127.865326,328.924713 125.155495,325.178925 
	C121.693657,320.393707 122.363144,312.331085 126.571083,308.131470 
	C130.499710,304.210571 135.852921,304.156189 141.762222,308.254730 
z"/>
<path fill="#040402" opacity="1.000000" stroke="none" 
	d="
M189.187714,311.295074 
	C189.601471,314.784454 190.327591,317.940216 190.021713,320.992554 
	C189.350555,327.690491 184.467117,330.674347 176.040771,329.633881 
	C176.040771,325.605286 176.040771,321.497772 176.040771,317.390259 
	C176.040771,313.429626 176.040771,309.468964 176.040771,305.268921 
	C181.659012,304.936737 186.291748,305.720093 189.187714,311.295074 
z"/>
</svg>